<mxfile host="app.diagrams.net" modified="2024-06-11T03:37:51.544Z" agent="Mozilla/5.0 (Windows NT 10.0; Win64; x64) AppleWebKit/537.36 (KHTML, like Gecko) Chrome/125.0.0.0 Safari/537.36" etag="frB267IZSdB86Ho0N2T3" version="24.5.2" type="github">
  <diagram id="C5RBs43oDa-KdzZeNtuy" name="Page-1">
    <mxGraphModel dx="1750" dy="942" grid="1" gridSize="10" guides="1" tooltips="1" connect="1" arrows="1" fold="1" page="1" pageScale="1" pageWidth="827" pageHeight="1169" math="0" shadow="0">
      <root>
        <mxCell id="WIyWlLk6GJQsqaUBKTNV-0" />
        <mxCell id="WIyWlLk6GJQsqaUBKTNV-1" parent="WIyWlLk6GJQsqaUBKTNV-0" />
        <mxCell id="WIyWlLk6GJQsqaUBKTNV-3" value="开始" style="rounded=1;whiteSpace=wrap;html=1;fontSize=12;glass=0;strokeWidth=1;shadow=0;perimeterSpacing=0;arcSize=29;fillColor=none;strokeColor=#0f0f0f;" parent="WIyWlLk6GJQsqaUBKTNV-1" vertex="1">
          <mxGeometry x="360" y="10" width="80" height="30" as="geometry" />
        </mxCell>
        <mxCell id="Zk89TC-21KflDD2qspoq-1" value="输入目标函数以及相关参数" style="rounded=0;whiteSpace=wrap;html=1;" vertex="1" parent="WIyWlLk6GJQsqaUBKTNV-1">
          <mxGeometry x="310" y="58" width="180" height="30" as="geometry" />
        </mxCell>
        <mxCell id="Zk89TC-21KflDD2qspoq-77" style="edgeStyle=orthogonalEdgeStyle;rounded=0;orthogonalLoop=1;jettySize=auto;html=1;exitX=0.5;exitY=1;exitDx=0;exitDy=0;exitPerimeter=0;entryX=0.5;entryY=0;entryDx=0;entryDy=0;" edge="1" parent="WIyWlLk6GJQsqaUBKTNV-1" source="Zk89TC-21KflDD2qspoq-62" target="Zk89TC-21KflDD2qspoq-67">
          <mxGeometry relative="1" as="geometry">
            <mxPoint x="651" y="200" as="sourcePoint" />
            <mxPoint x="641" y="910.0000000000002" as="targetPoint" />
          </mxGeometry>
        </mxCell>
        <mxCell id="Zk89TC-21KflDD2qspoq-5" value="由式4-1生成混沌种群&lt;b&gt;&lt;i&gt;X&lt;/i&gt;&lt;/b&gt;" style="rounded=0;whiteSpace=wrap;html=1;" vertex="1" parent="WIyWlLk6GJQsqaUBKTNV-1">
          <mxGeometry x="305" y="110" width="190" height="30" as="geometry" />
        </mxCell>
        <mxCell id="Zk89TC-21KflDD2qspoq-8" value="由式4-2生成准反向种群&lt;b&gt;&lt;i&gt;X&lt;sup&gt;obl&lt;/sup&gt;&lt;/i&gt;&lt;/b&gt;" style="rounded=0;whiteSpace=wrap;html=1;" vertex="1" parent="WIyWlLk6GJQsqaUBKTNV-1">
          <mxGeometry x="305" y="160" width="190" height="30" as="geometry" />
        </mxCell>
        <mxCell id="Zk89TC-21KflDD2qspoq-11" value="计算&lt;b style=&quot;font-style: italic;&quot;&gt;X&lt;/b&gt;和&lt;i style=&quot;font-weight: bold;&quot;&gt;X&lt;/i&gt;&lt;sup style=&quot;font-weight: bold; font-style: italic;&quot;&gt;obl&lt;/sup&gt;的势能" style="rounded=0;whiteSpace=wrap;html=1;" vertex="1" parent="WIyWlLk6GJQsqaUBKTNV-1">
          <mxGeometry x="305" y="210" width="190" height="30" as="geometry" />
        </mxCell>
        <mxCell id="Zk89TC-21KflDD2qspoq-12" value="选择最优的&lt;b&gt;&lt;i&gt;N&lt;/i&gt;&lt;/b&gt;个个体作为初始种群" style="rounded=0;whiteSpace=wrap;html=1;" vertex="1" parent="WIyWlLk6GJQsqaUBKTNV-1">
          <mxGeometry x="300" y="260" width="200" height="30" as="geometry" />
        </mxCell>
        <object placeholders="1" id="Zk89TC-21KflDD2qspoq-13">
          <mxCell style="rounded=1;fontSize=11;whiteSpace=wrap;html=1;dashed=1;arcSize=20;fillColor=none;strokeColor=#204a9d;fontColor=#333333;labelBackgroundColor=none;align=left;verticalAlign=bottom;labelBorderColor=none;spacingTop=0;spacing=10;dashPattern=8 4;metaEdit=1;rotatable=0;perimeter=rectanglePerimeter;noLabel=0;labelPadding=0;allowArrows=0;connectable=0;expand=0;recursiveResize=0;editable=1;pointerEvents=0;absoluteArcSize=1;points=[[0.25,0,0],[0.5,0,0],[0.75,0,0],[1,0.25,0],[1,0.5,0],[1,0.75,0],[0.75,1,0],[0.5,1,0],[0.25,1,0],[0,0.75,0],[0,0.5,0],[0,0.25,0]];" vertex="1" parent="WIyWlLk6GJQsqaUBKTNV-1">
            <mxGeometry x="280" y="50" width="240" height="250" as="geometry" />
          </mxCell>
        </object>
        <mxCell id="Zk89TC-21KflDD2qspoq-14" value="初始化阶段" style="text;html=1;align=center;verticalAlign=middle;whiteSpace=wrap;rounded=0;horizontal=0;" vertex="1" parent="WIyWlLk6GJQsqaUBKTNV-1">
          <mxGeometry x="500" y="130" width="20" height="90" as="geometry" />
        </mxCell>
        <mxCell id="Zk89TC-21KflDD2qspoq-16" value="&lt;b&gt;&lt;i&gt;rand &amp;lt; collRate?&lt;/i&gt;&lt;/b&gt;" style="strokeWidth=1;html=1;shape=mxgraph.flowchart.decision;whiteSpace=wrap;" vertex="1" parent="WIyWlLk6GJQsqaUBKTNV-1">
          <mxGeometry x="320" y="370" width="160" height="50" as="geometry" />
        </mxCell>
        <mxCell id="Zk89TC-21KflDD2qspoq-17" value="" style="endArrow=classic;html=1;rounded=0;edgeStyle=orthogonalEdgeStyle;entryX=0.5;entryY=0;entryDx=0;entryDy=0;entryPerimeter=0;exitX=1;exitY=0.5;exitDx=0;exitDy=0;exitPerimeter=0;" edge="1" parent="WIyWlLk6GJQsqaUBKTNV-1" source="Zk89TC-21KflDD2qspoq-16" target="Zk89TC-21KflDD2qspoq-27">
          <mxGeometry width="50" height="50" relative="1" as="geometry">
            <mxPoint x="475" y="394.5" as="sourcePoint" />
            <mxPoint x="515" y="450" as="targetPoint" />
          </mxGeometry>
        </mxCell>
        <mxCell id="Zk89TC-21KflDD2qspoq-23" value="Y" style="text;html=1;align=center;verticalAlign=middle;whiteSpace=wrap;rounded=0;" vertex="1" parent="WIyWlLk6GJQsqaUBKTNV-1">
          <mxGeometry x="240" y="376" width="60" height="20" as="geometry" />
        </mxCell>
        <mxCell id="Zk89TC-21KflDD2qspoq-24" value="N" style="text;html=1;align=center;verticalAlign=middle;whiteSpace=wrap;rounded=0;" vertex="1" parent="WIyWlLk6GJQsqaUBKTNV-1">
          <mxGeometry x="490" y="376" width="60" height="20" as="geometry" />
        </mxCell>
        <mxCell id="Zk89TC-21KflDD2qspoq-26" value="满足分解条件?" style="strokeWidth=1;html=1;shape=mxgraph.flowchart.decision;whiteSpace=wrap;" vertex="1" parent="WIyWlLk6GJQsqaUBKTNV-1">
          <mxGeometry x="217.5" y="450" width="120" height="50" as="geometry" />
        </mxCell>
        <mxCell id="Zk89TC-21KflDD2qspoq-27" value="满足合成条件?" style="strokeWidth=1;html=1;shape=mxgraph.flowchart.decision;whiteSpace=wrap;" vertex="1" parent="WIyWlLk6GJQsqaUBKTNV-1">
          <mxGeometry x="475" y="450" width="120" height="50" as="geometry" />
        </mxCell>
        <mxCell id="Zk89TC-21KflDD2qspoq-32" value="" style="endArrow=classic;html=1;rounded=0;edgeStyle=elbowEdgeStyle;exitX=1;exitY=0.5;exitDx=0;exitDy=0;exitPerimeter=0;" edge="1" parent="WIyWlLk6GJQsqaUBKTNV-1">
          <mxGeometry width="50" height="50" relative="1" as="geometry">
            <mxPoint x="338.5000000000001" y="475" as="sourcePoint" />
            <mxPoint x="358.5" y="550" as="targetPoint" />
            <Array as="points">
              <mxPoint x="358.5" y="475" />
            </Array>
          </mxGeometry>
        </mxCell>
        <mxCell id="Zk89TC-21KflDD2qspoq-37" value="" style="endArrow=classic;html=1;rounded=0;edgeStyle=elbowEdgeStyle;exitX=1;exitY=0.5;exitDx=0;exitDy=0;exitPerimeter=0;" edge="1" parent="WIyWlLk6GJQsqaUBKTNV-1" source="Zk89TC-21KflDD2qspoq-27">
          <mxGeometry width="50" height="50" relative="1" as="geometry">
            <mxPoint x="615" y="480" as="sourcePoint" />
            <mxPoint x="615" y="550" as="targetPoint" />
            <Array as="points">
              <mxPoint x="615" y="475" />
            </Array>
          </mxGeometry>
        </mxCell>
        <mxCell id="Zk89TC-21KflDD2qspoq-38" value="" style="endArrow=classic;html=1;rounded=0;edgeStyle=elbowEdgeStyle;exitX=0;exitY=0.5;exitDx=0;exitDy=0;exitPerimeter=0;" edge="1" parent="WIyWlLk6GJQsqaUBKTNV-1" source="Zk89TC-21KflDD2qspoq-27">
          <mxGeometry width="50" height="50" relative="1" as="geometry">
            <mxPoint x="455" y="470" as="sourcePoint" />
            <mxPoint x="455" y="550" as="targetPoint" />
            <Array as="points">
              <mxPoint x="455" y="475" />
            </Array>
          </mxGeometry>
        </mxCell>
        <mxCell id="Zk89TC-21KflDD2qspoq-39" value="Y" style="text;html=1;align=center;verticalAlign=middle;whiteSpace=wrap;rounded=0;" vertex="1" parent="WIyWlLk6GJQsqaUBKTNV-1">
          <mxGeometry x="179.5" y="456" width="60" height="20" as="geometry" />
        </mxCell>
        <mxCell id="Zk89TC-21KflDD2qspoq-40" value="Y" style="text;html=1;align=center;verticalAlign=middle;whiteSpace=wrap;rounded=0;" vertex="1" parent="WIyWlLk6GJQsqaUBKTNV-1">
          <mxGeometry x="437" y="456" width="60" height="20" as="geometry" />
        </mxCell>
        <mxCell id="Zk89TC-21KflDD2qspoq-41" value="N" style="text;html=1;align=center;verticalAlign=middle;whiteSpace=wrap;rounded=0;" vertex="1" parent="WIyWlLk6GJQsqaUBKTNV-1">
          <mxGeometry x="317.5" y="456" width="60" height="20" as="geometry" />
        </mxCell>
        <mxCell id="Zk89TC-21KflDD2qspoq-42" value="N" style="text;html=1;align=center;verticalAlign=middle;whiteSpace=wrap;rounded=0;" vertex="1" parent="WIyWlLk6GJQsqaUBKTNV-1">
          <mxGeometry x="574" y="456" width="60" height="20" as="geometry" />
        </mxCell>
        <mxCell id="Zk89TC-21KflDD2qspoq-43" value="随机选择一个切割点对分子进行切割，对两个子向量分别加上随机值" style="rounded=0;whiteSpace=wrap;html=1;" vertex="1" parent="WIyWlLk6GJQsqaUBKTNV-1">
          <mxGeometry x="135.5" y="550" width="130" height="50" as="geometry" />
        </mxCell>
        <mxCell id="Zk89TC-21KflDD2qspoq-44" value="单分子撞墙反应" style="rounded=0;whiteSpace=wrap;html=1;" vertex="1" parent="WIyWlLk6GJQsqaUBKTNV-1">
          <mxGeometry x="314.5" y="550" width="90" height="30" as="geometry" />
        </mxCell>
        <mxCell id="Zk89TC-21KflDD2qspoq-45" value="使用黄金正弦策略生成新分子" style="rounded=0;whiteSpace=wrap;html=1;" vertex="1" parent="WIyWlLk6GJQsqaUBKTNV-1">
          <mxGeometry x="414" y="550" width="90" height="40" as="geometry" />
        </mxCell>
        <mxCell id="Zk89TC-21KflDD2qspoq-46" value="由式4-6、4-7&lt;div&gt;生成新分子&lt;/div&gt;" style="rounded=0;whiteSpace=wrap;html=1;" vertex="1" parent="WIyWlLk6GJQsqaUBKTNV-1">
          <mxGeometry x="570" y="550" width="95" height="30" as="geometry" />
        </mxCell>
        <mxCell id="Zk89TC-21KflDD2qspoq-50" value="" style="endArrow=classic;html=1;rounded=0;edgeStyle=elbowEdgeStyle;exitX=0;exitY=0.5;exitDx=0;exitDy=0;exitPerimeter=0;" edge="1" parent="WIyWlLk6GJQsqaUBKTNV-1">
          <mxGeometry width="50" height="50" relative="1" as="geometry">
            <mxPoint x="219.5" y="475" as="sourcePoint" />
            <mxPoint x="199.5" y="550" as="targetPoint" />
            <Array as="points">
              <mxPoint x="199.5" y="475" />
            </Array>
          </mxGeometry>
        </mxCell>
        <mxCell id="Zk89TC-21KflDD2qspoq-51" value="" style="endArrow=classic;html=1;rounded=0;edgeStyle=orthogonalEdgeStyle;exitX=0;exitY=0.5;exitDx=0;exitDy=0;exitPerimeter=0;entryX=0.5;entryY=0;entryDx=0;entryDy=0;entryPerimeter=0;" edge="1" parent="WIyWlLk6GJQsqaUBKTNV-1" source="Zk89TC-21KflDD2qspoq-16" target="Zk89TC-21KflDD2qspoq-26">
          <mxGeometry width="50" height="50" relative="1" as="geometry">
            <mxPoint x="315" y="395" as="sourcePoint" />
            <mxPoint x="410" y="410" as="targetPoint" />
          </mxGeometry>
        </mxCell>
        <mxCell id="Zk89TC-21KflDD2qspoq-53" value="" style="endArrow=none;html=1;rounded=0;entryX=0.482;entryY=1.027;entryDx=0;entryDy=0;entryPerimeter=0;" edge="1" parent="WIyWlLk6GJQsqaUBKTNV-1">
          <mxGeometry width="50" height="50" relative="1" as="geometry">
            <mxPoint x="200.16000000000008" y="601.55" as="sourcePoint" />
            <mxPoint x="200.15999999999985" y="601.3499999999999" as="targetPoint" />
          </mxGeometry>
        </mxCell>
        <mxCell id="Zk89TC-21KflDD2qspoq-54" value="" style="endArrow=none;html=1;rounded=0;entryX=0.5;entryY=1;entryDx=0;entryDy=0;" edge="1" parent="WIyWlLk6GJQsqaUBKTNV-1">
          <mxGeometry width="50" height="50" relative="1" as="geometry">
            <mxPoint x="359.78" y="650" as="sourcePoint" />
            <mxPoint x="359.78" y="580" as="targetPoint" />
          </mxGeometry>
        </mxCell>
        <mxCell id="Zk89TC-21KflDD2qspoq-55" value="" style="endArrow=none;html=1;rounded=0;" edge="1" parent="WIyWlLk6GJQsqaUBKTNV-1">
          <mxGeometry width="50" height="50" relative="1" as="geometry">
            <mxPoint x="455.94" y="650" as="sourcePoint" />
            <mxPoint x="456" y="590" as="targetPoint" />
          </mxGeometry>
        </mxCell>
        <mxCell id="Zk89TC-21KflDD2qspoq-56" value="" style="endArrow=none;html=1;rounded=0;entryX=0.5;entryY=1;entryDx=0;entryDy=0;" edge="1" parent="WIyWlLk6GJQsqaUBKTNV-1">
          <mxGeometry width="50" height="50" relative="1" as="geometry">
            <mxPoint x="615.94" y="650" as="sourcePoint" />
            <mxPoint x="615.94" y="580" as="targetPoint" />
          </mxGeometry>
        </mxCell>
        <mxCell id="Zk89TC-21KflDD2qspoq-57" value="" style="endArrow=none;html=1;rounded=0;" edge="1" parent="WIyWlLk6GJQsqaUBKTNV-1">
          <mxGeometry width="50" height="50" relative="1" as="geometry">
            <mxPoint x="204" y="650" as="sourcePoint" />
            <mxPoint x="616" y="650" as="targetPoint" />
          </mxGeometry>
        </mxCell>
        <mxCell id="Zk89TC-21KflDD2qspoq-58" value="" style="endArrow=classic;html=1;rounded=0;entryX=0.543;entryY=0.037;entryDx=0;entryDy=0;entryPerimeter=0;" edge="1" parent="WIyWlLk6GJQsqaUBKTNV-1">
          <mxGeometry width="50" height="50" relative="1" as="geometry">
            <mxPoint x="400" y="650" as="sourcePoint" />
            <mxPoint x="400.5899999999999" y="701.48" as="targetPoint" />
          </mxGeometry>
        </mxCell>
        <mxCell id="Zk89TC-21KflDD2qspoq-59" value="检查并更新全局最小值" style="rounded=0;whiteSpace=wrap;html=1;" vertex="1" parent="WIyWlLk6GJQsqaUBKTNV-1">
          <mxGeometry x="330" y="700" width="150" height="30" as="geometry" />
        </mxCell>
        <mxCell id="Zk89TC-21KflDD2qspoq-60" value="" style="endArrow=classic;html=1;rounded=0;" edge="1" parent="WIyWlLk6GJQsqaUBKTNV-1">
          <mxGeometry width="50" height="50" relative="1" as="geometry">
            <mxPoint x="400" y="730" as="sourcePoint" />
            <mxPoint x="400" y="760" as="targetPoint" />
          </mxGeometry>
        </mxCell>
        <mxCell id="Zk89TC-21KflDD2qspoq-61" value="更新搜索步长" style="rounded=0;whiteSpace=wrap;html=1;" vertex="1" parent="WIyWlLk6GJQsqaUBKTNV-1">
          <mxGeometry x="330" y="760" width="150" height="30" as="geometry" />
        </mxCell>
        <mxCell id="Zk89TC-21KflDD2qspoq-62" value="&lt;b&gt;&lt;i&gt;FE ≤ maxFE?&lt;/i&gt;&lt;/b&gt;" style="strokeWidth=1;html=1;shape=mxgraph.flowchart.decision;whiteSpace=wrap;" vertex="1" parent="WIyWlLk6GJQsqaUBKTNV-1">
          <mxGeometry x="340" y="820" width="120" height="50" as="geometry" />
        </mxCell>
        <mxCell id="Zk89TC-21KflDD2qspoq-63" value="" style="endArrow=classic;html=1;rounded=0;exitX=0.465;exitY=0.952;exitDx=0;exitDy=0;entryX=0.5;entryY=0;entryDx=0;entryDy=0;entryPerimeter=0;exitPerimeter=0;" edge="1" parent="WIyWlLk6GJQsqaUBKTNV-1" source="Zk89TC-21KflDD2qspoq-61" target="Zk89TC-21KflDD2qspoq-62">
          <mxGeometry width="50" height="50" relative="1" as="geometry">
            <mxPoint x="500" y="800" as="sourcePoint" />
            <mxPoint x="550" y="750" as="targetPoint" />
          </mxGeometry>
        </mxCell>
        <mxCell id="Zk89TC-21KflDD2qspoq-64" value="" style="endArrow=none;html=1;rounded=0;entryX=0.5;entryY=1;entryDx=0;entryDy=0;" edge="1" parent="WIyWlLk6GJQsqaUBKTNV-1">
          <mxGeometry width="50" height="50" relative="1" as="geometry">
            <mxPoint x="202.5" y="650" as="sourcePoint" />
            <mxPoint x="202.5" y="600" as="targetPoint" />
          </mxGeometry>
        </mxCell>
        <mxCell id="Zk89TC-21KflDD2qspoq-67" value="输出最优位置及最优解" style="rounded=0;whiteSpace=wrap;html=1;" vertex="1" parent="WIyWlLk6GJQsqaUBKTNV-1">
          <mxGeometry x="325" y="910" width="150" height="30" as="geometry" />
        </mxCell>
        <mxCell id="Zk89TC-21KflDD2qspoq-68" value="结束" style="rounded=1;whiteSpace=wrap;html=1;fontSize=12;glass=0;strokeWidth=1;shadow=0;perimeterSpacing=0;arcSize=29;fillColor=none;strokeColor=default;fillStyle=auto;" vertex="1" parent="WIyWlLk6GJQsqaUBKTNV-1">
          <mxGeometry x="355" y="970" width="80" height="30" as="geometry" />
        </mxCell>
        <mxCell id="Zk89TC-21KflDD2qspoq-69" value="" style="endArrow=classic;html=1;rounded=0;exitX=0.5;exitY=1;exitDx=0;exitDy=0;entryX=0.5;entryY=0;entryDx=0;entryDy=0;" edge="1" parent="WIyWlLk6GJQsqaUBKTNV-1" source="WIyWlLk6GJQsqaUBKTNV-3" target="Zk89TC-21KflDD2qspoq-1">
          <mxGeometry width="50" height="50" relative="1" as="geometry">
            <mxPoint x="580" y="50" as="sourcePoint" />
            <mxPoint x="510" y="90" as="targetPoint" />
          </mxGeometry>
        </mxCell>
        <mxCell id="Zk89TC-21KflDD2qspoq-71" value="" style="endArrow=classic;html=1;rounded=0;entryX=0.5;entryY=0;entryDx=0;entryDy=0;" edge="1" parent="WIyWlLk6GJQsqaUBKTNV-1" target="Zk89TC-21KflDD2qspoq-5">
          <mxGeometry width="50" height="50" relative="1" as="geometry">
            <mxPoint x="400" y="90" as="sourcePoint" />
            <mxPoint x="420" y="78" as="targetPoint" />
          </mxGeometry>
        </mxCell>
        <mxCell id="Zk89TC-21KflDD2qspoq-72" value="" style="endArrow=classic;html=1;rounded=0;exitX=0.5;exitY=1;exitDx=0;exitDy=0;entryX=0.5;entryY=0;entryDx=0;entryDy=0;" edge="1" parent="WIyWlLk6GJQsqaUBKTNV-1" source="Zk89TC-21KflDD2qspoq-5" target="Zk89TC-21KflDD2qspoq-8">
          <mxGeometry width="50" height="50" relative="1" as="geometry">
            <mxPoint x="430" y="70" as="sourcePoint" />
            <mxPoint x="430" y="88" as="targetPoint" />
          </mxGeometry>
        </mxCell>
        <mxCell id="Zk89TC-21KflDD2qspoq-73" value="" style="endArrow=classic;html=1;rounded=0;exitX=0.5;exitY=1;exitDx=0;exitDy=0;entryX=0.5;entryY=0;entryDx=0;entryDy=0;" edge="1" parent="WIyWlLk6GJQsqaUBKTNV-1" source="Zk89TC-21KflDD2qspoq-8" target="Zk89TC-21KflDD2qspoq-11">
          <mxGeometry width="50" height="50" relative="1" as="geometry">
            <mxPoint x="440" y="80" as="sourcePoint" />
            <mxPoint x="440" y="98" as="targetPoint" />
          </mxGeometry>
        </mxCell>
        <mxCell id="Zk89TC-21KflDD2qspoq-74" value="" style="endArrow=classic;html=1;rounded=0;exitX=0.5;exitY=1;exitDx=0;exitDy=0;entryX=0.5;entryY=0;entryDx=0;entryDy=0;" edge="1" parent="WIyWlLk6GJQsqaUBKTNV-1" source="Zk89TC-21KflDD2qspoq-11" target="Zk89TC-21KflDD2qspoq-12">
          <mxGeometry width="50" height="50" relative="1" as="geometry">
            <mxPoint x="450" y="90" as="sourcePoint" />
            <mxPoint x="450" y="108" as="targetPoint" />
          </mxGeometry>
        </mxCell>
        <mxCell id="Zk89TC-21KflDD2qspoq-75" value="" style="endArrow=classic;html=1;rounded=0;exitX=0.5;exitY=1;exitDx=0;exitDy=0;entryX=0.5;entryY=0;entryDx=0;entryDy=0;entryPerimeter=0;" edge="1" parent="WIyWlLk6GJQsqaUBKTNV-1" source="Zk89TC-21KflDD2qspoq-12" target="Zk89TC-21KflDD2qspoq-16">
          <mxGeometry width="50" height="50" relative="1" as="geometry">
            <mxPoint x="460" y="100" as="sourcePoint" />
            <mxPoint x="460" y="118" as="targetPoint" />
          </mxGeometry>
        </mxCell>
        <mxCell id="Zk89TC-21KflDD2qspoq-76" value="" style="endArrow=classic;html=1;rounded=0;entryX=0.5;entryY=0;entryDx=0;entryDy=0;" edge="1" parent="WIyWlLk6GJQsqaUBKTNV-1">
          <mxGeometry width="50" height="50" relative="1" as="geometry">
            <mxPoint x="410" y="100" as="sourcePoint" />
            <mxPoint x="410" y="120" as="targetPoint" />
          </mxGeometry>
        </mxCell>
        <mxCell id="Zk89TC-21KflDD2qspoq-78" style="rounded=0;orthogonalLoop=1;jettySize=auto;html=1;exitX=0.5;exitY=1;exitDx=0;exitDy=0;entryX=0.556;entryY=0.053;entryDx=0;entryDy=0;entryPerimeter=0;" edge="1" parent="WIyWlLk6GJQsqaUBKTNV-1" source="Zk89TC-21KflDD2qspoq-67" target="Zk89TC-21KflDD2qspoq-68">
          <mxGeometry relative="1" as="geometry">
            <mxPoint x="410" y="890" as="sourcePoint" />
            <mxPoint x="410" y="920" as="targetPoint" />
          </mxGeometry>
        </mxCell>
        <mxCell id="Zk89TC-21KflDD2qspoq-79" value="" style="endArrow=classic;html=1;rounded=0;edgeStyle=elbowEdgeStyle;exitX=1;exitY=0.5;exitDx=0;exitDy=0;exitPerimeter=0;" edge="1" parent="WIyWlLk6GJQsqaUBKTNV-1" source="Zk89TC-21KflDD2qspoq-62">
          <mxGeometry width="50" height="50" relative="1" as="geometry">
            <mxPoint x="420" y="770" as="sourcePoint" />
            <mxPoint x="400" y="330" as="targetPoint" />
            <Array as="points">
              <mxPoint x="710" y="580" />
            </Array>
          </mxGeometry>
        </mxCell>
        <mxCell id="Zk89TC-21KflDD2qspoq-80" value="Y" style="text;html=1;align=center;verticalAlign=middle;whiteSpace=wrap;rounded=0;" vertex="1" parent="WIyWlLk6GJQsqaUBKTNV-1">
          <mxGeometry x="460" y="820" width="60" height="20" as="geometry" />
        </mxCell>
        <mxCell id="Zk89TC-21KflDD2qspoq-81" value="N" style="text;html=1;align=center;verticalAlign=middle;whiteSpace=wrap;rounded=0;" vertex="1" parent="WIyWlLk6GJQsqaUBKTNV-1">
          <mxGeometry x="390" y="880" width="60" height="20" as="geometry" />
        </mxCell>
        <object c4Name="迭代反应阶段" placeholders="1" id="Zk89TC-21KflDD2qspoq-84">
          <mxCell style="rounded=1;fontSize=11;whiteSpace=wrap;html=1;dashed=1;arcSize=20;fillColor=none;strokeColor=#1ca2ce;fontColor=#333333;labelBackgroundColor=none;align=left;verticalAlign=bottom;labelBorderColor=none;spacingTop=0;spacing=10;dashPattern=8 4;metaEdit=1;rotatable=0;perimeter=rectanglePerimeter;noLabel=0;labelPadding=0;allowArrows=0;connectable=0;expand=0;recursiveResize=0;editable=1;pointerEvents=0;absoluteArcSize=1;points=[[0.25,0,0],[0.5,0,0],[0.75,0,0],[1,0.25,0],[1,0.5,0],[1,0.75,0],[0.75,1,0],[0.5,1,0],[0.25,1,0],[0,0.75,0],[0,0.5,0],[0,0.25,0]];" vertex="1" parent="WIyWlLk6GJQsqaUBKTNV-1">
            <mxGeometry x="90" y="320" width="650" height="560" as="geometry" />
          </mxCell>
        </object>
        <mxCell id="Zk89TC-21KflDD2qspoq-86" value="迭代反应阶段" style="text;html=1;align=center;verticalAlign=middle;whiteSpace=wrap;rounded=0;" vertex="1" parent="WIyWlLk6GJQsqaUBKTNV-1">
          <mxGeometry x="100" y="330" width="80" height="30" as="geometry" />
        </mxCell>
      </root>
    </mxGraphModel>
  </diagram>
</mxfile>
